<?xml version="1.0" encoding="utf-8"?>
<!-- Generator: Adobe Illustrator 16.0.0, SVG Export Plug-In . SVG Version: 6.00 Build 0)  -->
<!DOCTYPE svg PUBLIC "-//W3C//DTD SVG 1.1//EN" "http://www.w3.org/Graphics/SVG/1.1/DTD/svg11.dtd">
<svg version="1.1" xmlns="http://www.w3.org/2000/svg" xmlns:xlink="http://www.w3.org/1999/xlink" x="0px" y="0px" width="1412px"
	 height="202px" viewBox="0 0 1412 202" enable-background="new 0 0 1412 202" xml:space="preserve">
<g id="Layer_1" display="none">
	
		<image display="inline" overflow="visible" opacity="0.6" width="300" height="43" xlink:href="canservers.jpg"  transform="matrix(4.7075 0 0 4.7075 -10.4131 -488.502)">
	</image>
</g>
<g id="Layer_2">
	<g>
		<path d="M575.353-429.045c-3.36-15.12-19.68-21.601-34.321-21.36c-11.28,0.24-23.76,4.08-30.48,12.72
			c-3.36,4.32-4.56,9.84-4.08,15.601c1.2,17.28,20.161,19.44,38.161,21.12c23.041,2.88,51.602,8.88,58.082,35.761
			c0.72,3.601,1.2,7.681,1.2,11.041c0,32.4-32.161,51.121-62.401,51.121c-25.921,0-57.361-15.361-60.481-45.361l-0.24-4.561
			l24.48-0.479l0.24,3.601v-0.961c1.68,15.601,20.641,23.761,36.241,23.761c18,0,37.681-10.08,37.681-27.36
			c0-1.68-0.24-3.6-0.72-5.76c-2.88-12.721-20.161-14.881-36.961-16.561c-26.161-2.641-56.881-8.4-59.521-43.441v0.24
			c-0.96-11.28,1.92-22.56,9.121-31.92c11.28-14.641,31.44-22.321,50.881-22.321c25.921,0,52.801,13.44,57.122,44.161
			L575.353-429.045z"/>
		<path d="M644.684-328.724h78.001v24.241H620.203v-167.764h102.242v24.24h-77.761v47.281h76.082v24.48h-76.082V-328.724z"/>
		<path d="M772.912-389.685h28.32c20.4,0,30.48-14.64,30.48-29.28c0-14.4-10.08-29.041-30.48-29.041h-37.199v143.523h-24.002
			v-168.004h61.201c36.482,0,54.723,26.881,54.723,53.521c0,23.76-14.641,46.321-43.441,51.36l53.041,63.122h-31.441l-61.201-73.682
			V-389.685z"/>
		<path d="M976.889-472.246h25.922l-67.443,168.243h-17.76l-67.441-168.243h26.4l49.922,125.522L976.889-472.246z"/>
		<path d="M1033.355-328.724h78.002v24.241h-102.482v-167.764h102.242v24.24h-77.762v47.281h76.082v24.48h-76.082V-328.724z"/>
		<path d="M1161.586-389.685h28.32c20.4,0,30.48-14.64,30.48-29.28c0-14.4-10.08-29.041-30.48-29.041h-37.201v143.523h-24v-168.004
			h61.201c36.48,0,54.721,26.881,54.721,53.521c0,23.76-14.641,46.321-43.441,51.36l53.041,63.122h-31.439l-61.201-73.682V-389.685z
			"/>
		<path d="M1348.33-429.045c-3.361-15.12-19.682-21.601-34.322-21.36c-11.279,0.24-23.76,4.08-30.48,12.72
			c-3.359,4.32-4.561,9.84-4.08,15.601c1.201,17.28,20.16,19.44,38.162,21.12c23.039,2.88,51.6,8.88,58.08,35.761
			c0.721,3.601,1.201,7.681,1.201,11.041c0,32.4-32.162,51.121-62.402,51.121c-25.92,0-57.361-15.361-60.48-45.361l-0.24-4.561
			l24.48-0.479l0.24,3.601v-0.961c1.68,15.601,20.641,23.761,36.24,23.761c18,0,37.682-10.08,37.682-27.36
			c0-1.68-0.24-3.6-0.721-5.76c-2.881-12.721-20.16-14.881-36.961-16.561c-26.16-2.641-56.881-8.4-59.521-43.441v0.24
			c-0.959-11.28,1.92-22.56,9.121-31.92c11.279-14.641,31.439-22.321,50.881-22.321c25.92,0,52.801,13.44,57.121,44.161
			L1348.33-429.045z"/>
	</g>
	<path fill="#ED1C24" d="M169.404-378h-39.476l-2.074,5.9c-6.408,18.867-22.042,30.027-41.821,30.027
		c-11.55,0-22.496-4.843-30.819-13.545c-8.465-8.851-13.127-20.385-13.127-32.431c0-12.505,4.54-23.874,13.127-32.851
		c8.324-8.703,19.27-13.502,30.819-13.502c19.725,0,34.127,10.1,40.553,28.334l2.117,6.067h39.633l-2.838-11.27
		c-9.655-38.135-40.847-62.807-79.465-62.807c-21.909,0-43.406,9.209-58.979,25.292l-0.1,0.098
		c-15.563,16.6-24.134,38.125-24.134,60.618c0,22.212,8.571,43.585,24.185,60.24c15.586,16.352,36.549,25.356,59.027,25.356
		c39.04,0,70.659-25.208,80.554-64.536L169.404-378z"/>
	<polygon fill="#ED1C24" points="424,-474 424,-386.311 364.225,-473.396 334,-473.79 334,-304 373,-304 373,-389.821 433.466,-304 
		464,-304 464,-474 	"/>
	<path fill="#ED1C24" d="M256.723-475h-28.286l-68.109,171h43.112l2.203-5.458c3.391-8.938,8.57-21.542,15.789-38.542h19.632
		l0.636-14.671c0.004-0.685-0.984-1.657-1.574-1.595c-6.683,0.714-12.668,1.872-19.348,2.642l1.698-5.571
		c0.273-0.971-0.115-2.043-0.882-2.64l-19.4-15.758l4.017-1.888c1.768-0.631,1.273-1.623,0.64-4.017l-2.96-10.762l11.27,2.37
		c1.101,0.166,1.834-0.533,2.001-1.198l1.447-5.067l8.912,9.978c1.268,1.596,3.836,1.596,3.036-2.096l-3.807-20.208l5.107,2.644
		c1.434,0.799,2.868,0.932,3.668-0.498l7.054-13.156l7.057,13.156c0.8,1.43,2.234,1.297,3.668,0.498l5.106-2.644l-3.806,20.208
		c-0.8,3.692,1.768,3.692,3.035,2.096l8.913-9.978l1.446,5.067c0.167,0.666,0.9,1.364,2.001,1.198l11.27-2.37l-2.96,10.762
		c-0.633,2.395-1.128,3.386,0.64,4.017l4.017,1.888l-19.4,15.758c-0.768,0.597-1.156,1.669-0.882,2.64l1.698,5.571
		c-6.68-0.77-12.665-1.928-19.348-2.642c-0.59-0.062-1.486,0.954-1.481,1.638L243.919-348h19.953l18.229,44h42.732L256.723-475z"/>
	<rect x="98.359" y="-1452.321" fill="none" width="909.434" height="215.094"/>
	<text transform="matrix(1 0 0 1 98.3594 -1284.5635)" font-family="'Code-Bold'" font-size="240">SERVERS</text>
	<rect x="-373.301" y="-1444.321" fill="none" width="909.434" height="215.093"/>
	
		<text transform="matrix(1 0 0 1 -373.3008 -1292.6406)" fill="#ED1C24" stroke="#ED1C24" stroke-width="18" stroke-miterlimit="10" font-family="'Code-Bold'" font-size="217" letter-spacing="24">CAN</text>
	<path fill="#FFFFFF" d="M307.313-744.049l-7.054,13.156c-0.8,1.43-2.234,1.297-3.668,0.498l-5.107-2.644l3.807,20.208
		c0.8,3.692-1.768,3.692-3.036,2.096l-8.912-9.978l-1.447,5.067c-0.167,0.666-0.9,1.364-2.001,1.198l-11.27-2.37l2.96,10.762
		c0.634,2.395,1.128,3.386-0.64,4.017l-4.017,1.888l19.4,15.758c0.768,0.597,1.156,1.669,0.882,2.64l-1.698,5.571
		c6.679-0.77,12.665-1.928,19.348-2.642c0.59-0.062,1.578,0.91,1.574,1.595l-0.885,20.413h3.248l-0.511-20.37
		c-0.004-0.684,0.892-1.7,1.481-1.638c6.683,0.714,12.668,1.872,19.348,2.642l-1.698-5.571c-0.273-0.971,0.115-2.043,0.882-2.64
		l19.4-15.758l-4.017-1.888c-1.768-0.631-1.273-1.623-0.64-4.017l2.96-10.762l-11.27,2.37c-1.101,0.166-1.834-0.533-2.001-1.198
		l-1.446-5.067l-8.913,9.978c-1.267,1.596-3.835,1.596-3.035-2.096l3.806-20.208l-5.106,2.644c-1.435,0.799-2.868,0.932-3.668-0.498
		"/>
	<rect x="475.417" y="-1011.716" fill="none" width="909.433" height="215.094"/>
	<text transform="matrix(1 0 0 1 475.417 -843.9595)" font-family="'Code-Bold'" font-size="240">SERVERS</text>
	<rect x="3.757" y="-1003.716" fill="none" width="466.526" height="214.095"/>
	
		<text transform="matrix(1 0 0 1 3.7568 -852.0356)" fill="#ED1C24" stroke="#ED1C24" stroke-width="18" stroke-miterlimit="10" font-family="'Code-Bold'" font-size="217" letter-spacing="24">CAN</text>
	<g>
		<g>
			<path d="M591.497,60.559c-3.36-15.121-19.681-21.602-34.321-21.361c-11.28,0.24-23.76,4.08-30.48,12.721
				c-3.359,4.32-4.56,9.84-4.08,15.602c1.2,17.279,20.161,19.439,38.161,21.119c23.04,2.881,51.602,8.881,58.081,35.762
				c0.721,3.6,1.2,7.68,1.2,11.041c0,32.4-32.161,51.121-62.401,51.121c-25.921,0-57.361-15.361-60.481-45.361l-0.24-4.561
				l24.48-0.48l0.24,3.602v-0.961c1.681,15.6,20.641,23.76,36.241,23.76c18,0,37.681-10.08,37.681-27.359c0-1.68-0.24-3.6-0.72-5.76
				c-2.881-12.721-20.161-14.881-36.961-16.561c-26.161-2.641-56.882-8.4-59.521-43.441v0.238c-0.96-11.279,1.92-22.559,9.12-31.92
				c11.28-14.641,31.44-22.32,50.881-22.32c25.921,0,52.802,13.439,57.122,44.16L591.497,60.559z"/>
			<path d="M660.828,160.881h78.002v24.24H636.347V17.357H738.59v24.24h-77.762v47.281h76.083v24.48h-76.083V160.881z"/>
			<path d="M789.057,99.92h28.32c20.4,0,30.48-14.641,30.48-29.281c0-14.4-10.08-29.041-30.48-29.041h-37.199v143.523h-24.002
				V17.117h61.201c36.482,0,54.723,26.881,54.723,53.521c0,23.76-14.641,46.322-43.441,51.361l53.041,63.121h-31.441l-61.201-73.682
				V99.92z"/>
			<path d="M993.033,17.357h25.922l-67.443,168.244h-17.76L866.311,17.357h26.4l49.922,125.523L993.033,17.357z"/>
			<path d="M1049.5,160.881h78.002v24.24H1025.02V17.357h102.242v24.24H1049.5v47.281h76.082v24.48H1049.5V160.881z"/>
			<path d="M1177.73,99.92h28.32c20.4,0,30.48-14.641,30.48-29.281c0-14.4-10.08-29.041-30.48-29.041h-37.201v143.523h-24V17.117
				h61.201c36.48,0,54.721,26.881,54.721,53.521c0,23.76-14.641,46.322-43.441,51.361l53.041,63.121h-31.439l-61.201-73.682V99.92z"
				/>
			<path d="M1364.475,60.559c-3.361-15.121-19.682-21.602-34.322-21.361c-11.279,0.24-23.76,4.08-30.48,12.721
				c-3.359,4.32-4.561,9.84-4.08,15.602c1.201,17.279,20.16,19.439,38.162,21.119c23.039,2.881,51.6,8.881,58.08,35.762
				c0.721,3.6,1.201,7.68,1.201,11.041c0,32.4-32.162,51.121-62.402,51.121c-25.92,0-57.361-15.361-60.48-45.361l-0.24-4.561
				l24.48-0.48l0.24,3.602v-0.961c1.68,15.6,20.641,23.76,36.24,23.76c18,0,37.682-10.08,37.682-27.359c0-1.68-0.24-3.6-0.721-5.76
				c-2.881-12.721-20.16-14.881-36.961-16.561c-26.16-2.641-56.881-8.4-59.521-43.441v0.238c-0.959-11.279,1.92-22.559,9.121-31.92
				c11.279-14.641,31.439-22.32,50.881-22.32c25.92,0,52.801,13.439,57.121,44.16L1364.475,60.559z"/>
		</g>
		<path fill="#ED1C24" d="M185.549,112h-39.477l-2.073,5.769c-6.408,18.867-22.042,29.962-41.821,29.962
			c-11.55,0-22.495-4.875-30.819-13.578c-8.465-8.85-13.127-20.401-13.127-32.446c0-12.506,4.539-23.884,13.127-32.86
			c8.324-8.703,19.27-13.506,30.819-13.506c19.726,0,34.127,10.229,40.553,28.464L144.848,90h39.634l-2.838-11.401
			c-9.655-38.135-40.847-62.872-79.466-62.872c-21.909,0-43.405,9.176-58.979,25.258l-0.1,0.081
			c-15.563,16.6-24.134,38.116-24.134,60.608c0,22.213,8.57,43.582,24.185,60.236c15.586,16.352,36.549,25.355,59.027,25.355
			c39.04,0,70.659-25.078,80.554-64.406L185.549,112z"/>
		<polygon fill="#ED1C24" points="440,16 440,103.426 380.225,16.342 350,15.947 350,186 389,186 389,99.916 449.61,186 480,186 
			480,16 		"/>
		<path fill="#ED1C24" d="M272.867,15h-28.286l-68.108,171h43.112l2.203-5.457c3.391-8.939,8.57-21.543,15.789-38.543h42.439
			l18.229,44h42.731L272.867,15z M278.828,122.408l1.697,5.572c-6.68-0.77-12.665-1.928-19.348-2.643
			c-0.59-0.062-4.317-0.062-4.907,0c-6.683,0.715-12.668,1.873-19.348,2.643l1.698-5.572c0.273-0.971-0.115-2.043-0.883-2.639
			l-19.4-15.758l4.018-1.889c1.768-0.631,1.273-1.623,0.64-4.018l-2.961-10.762l11.271,2.369c1.101,0.166,1.834-0.531,2.001-1.197
			l1.446-5.066l8.912,9.977c1.268,1.596,3.836,1.596,3.036-2.096l-3.807-20.207L248,73.768c1.435,0.799,2.868,0.932,3.669-0.498
			l7.054-13.156l7.058,13.156c0.8,1.43,2.233,1.297,3.668,0.498l5.106-2.645l-3.806,20.207c-0.801,3.691,1.768,3.691,3.035,2.096
			l8.912-9.977l1.446,5.066c0.167,0.666,0.9,1.363,2.002,1.197l11.27-2.369l-2.96,10.762c-0.634,2.395-1.128,3.387,0.64,4.018
			l4.017,1.889l-19.4,15.758C278.942,120.365,278.555,121.438,278.828,122.408z"/>
	</g>
</g>
</svg>
